<?xml version="1.0" standalone="no"?>
<!DOCTYPE svg PUBLIC "-//W3C//DTD SVG 20010904//EN"
 "http://www.w3.org/TR/2001/REC-SVG-20010904/DTD/svg10.dtd">
<svg version="1.0" xmlns="http://www.w3.org/2000/svg"
 width="640.000000pt" height="640.000000pt" viewBox="0 0 640.000000 640.000000"
 preserveAspectRatio="xMidYMid meet">
<metadata>
Created by potrace 1.14, written by Peter Selinger 2001-2017
</metadata>
<g transform="translate(0.000000,640.000000) scale(0.100000,-0.100000)"
fill="#000000" stroke="none">
<path d="M6374 4592 c-71 -64 -461 -381 -538 -437 -24 -17 -79 -58 -111 -82
-145 -110 -274 -202 -488 -347 l-188 -127 -111 66 c-60 36 -114 65 -119 65 -5
0 -9 5 -9 10 0 6 -4 10 -10 10 -5 0 -63 30 -127 66 -195 109 -546 281 -713
348 -36 15 -74 31 -85 36 -158 73 -646 223 -796 244 -19 3 -61 10 -94 15 -134
22 -189 26 -395 26 -194 0 -346 -8 -409 -20 -13 -2 -49 -7 -80 -11 -31 -3 -65
-8 -76 -10 -11 -3 -36 -7 -55 -10 -190 -30 -498 -120 -718 -209 -76 -32 -339
-159 -382 -185 -8 -5 -58 -35 -110 -67 -127 -76 -343 -227 -396 -278 -6 -5
-37 -32 -70 -60 -88 -76 -206 -196 -236 -240 -66 -100 -74 -228 -19 -338 65
-132 398 -422 696 -607 61 -38 113 -68 116 -67 4 1 15 -5 25 -14 29 -25 266
-142 394 -194 159 -65 424 -150 533 -170 19 -4 124 -25 197 -40 199 -41 635
-63 835 -42 129 14 309 47 445 83 74 20 140 37 145 38 6 1 62 19 125 40 413
135 861 347 1418 671 l82 48 143 -96 c139 -93 332 -227 352 -244 6 -5 26 -19
45 -33 124 -85 408 -305 579 -448 25 -20 70 -57 100 -82 30 -25 68 -57 85 -72
38 -35 46 -35 40 -1 -2 16 -6 42 -9 58 -2 17 -7 48 -10 70 -6 42 -13 87 -19
120 -4 26 -15 99 -21 150 -3 22 -10 65 -15 95 -5 30 -12 73 -15 95 -3 22 -7
49 -9 60 -2 11 -7 44 -11 72 -6 45 -12 57 -47 85 -22 18 -54 46 -71 62 -18 15
-77 67 -132 114 -55 48 -105 91 -111 97 -40 38 -200 165 -297 235 -42 30 -76
58 -76 61 -1 4 38 35 87 70 131 95 317 249 486 402 17 15 59 51 93 80 l61 51
17 111 c9 60 18 124 21 140 2 17 6 41 9 55 2 14 7 45 10 70 3 25 8 56 10 70 7
39 13 80 20 140 4 30 8 57 10 60 2 3 6 28 9 55 4 28 9 62 12 78 7 32 4 33 -22
9z m-3604 -786 c203 -39 409 -101 760 -231 210 -78 842 -355 848 -373 1 -4
-17 -16 -40 -27 -24 -10 -77 -34 -118 -53 -208 -95 -252 -114 -446 -194 -98
-41 -237 -96 -309 -122 -71 -27 -153 -57 -181 -68 -29 -11 -58 -21 -65 -22 -8
-1 -52 -15 -99 -29 -100 -31 -233 -67 -275 -73 -16 -3 -36 -7 -43 -9 -67 -23
-324 -22 -472 1 -47 7 -129 22 -160 29 -14 3 -49 10 -78 16 -29 6 -71 16 -92
24 -22 8 -40 12 -40 10 0 -8 -299 98 -430 152 -163 68 -434 205 -588 297
l-113 68 33 25 c62 46 359 205 518 277 146 67 265 116 278 116 5 0 27 8 48 17
22 9 44 18 49 19 6 2 78 24 160 48 83 25 161 47 175 50 14 3 36 7 50 10 64 15
203 37 266 42 38 4 70 7 71 8 6 5 261 -2 293 -8z"/>
</g>
</svg>
